PathFileType	4	(x/y/z)	S09_SL_Cal_T01
DataRate	CameraRate	NumFrames	NumMarkers	Units	OrigDataRate	OrigDataStartFrame	OrigNumFrames
240	240	4	51	mm	240	601	2400
Frame#	Time	Sternum			R.Acromium			L.Acromium			Top.Head			R.ASIS			L.ASIS			R.PSIS			L.PSIS			R.Great.Tro			L.Great.Tro			R.Iliac.Crest			L.Iliac.Crest			V.Sacral			R.Thigh.Upper.Post			R.Thigh.Lower.Ant			R.Thigh.Lower.Post			R.Thigh.Upper.Ant			R.Knee.Lat			R.Knee.Med			R.Shank.Upper.Post			R.Shank.Lower.Ant			R.Shank.Lower.Post			R.Shank.Upper.Ant			R.Ankle.Lat			R.Ankle.Med			R.Heel.Upper			R.Heel.Med			R.Heel.Lat			R.Toe.Lat			R.Toe.Med			R.Toe.Tip			L.Thigh.Upper.Post			L.Thigh.Lower.Ant			L.Thigh.Lower.Post			L.Thigh.Upper.Ant			L.Knee.Lat			L.Knee.Med			L.Shank.Upper.Post			L.Shank.Lower.Ant			L.Shank.Lower.Post			L.Shank.Upper.Ant			L.Ankle.Lat			L.Ankle.Med			L.Heel.Upper			L.Heel.Med			L.Heel.Lat			L.Toe.Lat			L.Toe.Med			L.Toe.Tip			Cervical.Spine			Back			
		X1	Y1	Z1	X2	Y2	Z2	X3	Y3	Z3	X4	Y4	Z4	X5	Y5	Z5	X6	Y6	Z6	X7	Y7	Z7	X8	Y8	Z8	X9	Y9	Z9	X10	Y10	Z10	X11	Y11	Z11	X12	Y12	Z12	X13	Y13	Z13	X14	Y14	Z14	X15	Y15	Z15	X16	Y16	Z16	X17	Y17	Z17	X18	Y18	Z18	X19	Y19	Z19	X20	Y20	Z20	X21	Y21	Z21	X22	Y22	Z22	X23	Y23	Z23	X24	Y24	Z24	X25	Y25	Z25	X26	Y26	Z26	X27	Y27	Z27	X28	Y28	Z28	X29	Y29	Z29	X30	Y30	Z30	X31	Y31	Z31	X32	Y32	Z32	X33	Y33	Z33	X34	Y34	Z34	X35	Y35	Z35	X36	Y36	Z36	X37	Y37	Z37	X38	Y38	Z38	X39	Y39	Z39	X40	Y40	Z40	X41	Y41	Z41	X42	Y42	Z42	X43	Y43	Z43	X44	Y44	Z44	X45	Y45	Z45	X46	Y46	Z46	X47	Y47	Z47	X48	Y48	Z48	X49	Y49	Z49	X50	Y50	Z50	X51	Y51	Z51	

601	2.5	574.87	1202.3	292.65	438.24	1455.5	441.89	438.45	1448.9	126.9	504.72	1749.9	287.6	537.65	1036.5	399.69	525.27	1033	153.21	314.78	1060.7	331.93	316.53	1061.6	242.32	455.08	952.3	475.35	444.62	947.17	91.36	446.82	1115.4	446.56	416.31	1126.7	122.8	296.51	1026.3	285.22	423.6	710.29	466.1	476.68	599.18	426.68	402.75	619.87	446.4	489.72	687.05	448.71	441.2	525.98	420.46	420.44	510.97	302.9	361.47	353.9	439.74	430.55	294.94	426.18	359.28	277.74	430.65	426.03	368.36	436.98	392.07	93.887	411.46	422.57	105.46	328.4	332.17	76.221	361.95	342.54	44.518	332.76	333.77	46.457	397.18	492.57	39.934	453.9	542.24	46.232	348.21	588.78	61.042	395.57	362.96	701.78	121.83	432.16	596.28	112.58	361.38	612.53	131.11	429.42	684.69	96.687	411.37	515.99	118.89	423.93	515.59	254.27	364.03	382.6	102.57	430.77	294.94	113.11	367.45	305.51	105.9	426.71	372.84	110.33	403.69	106	126.1	417.47	96.616	217.61	334.64	69.557	172.81	345.81	45.703	206.31	337.48	41.865	144.82	512.13	43.831	95.74	545.66	44.634	205.23	598.91	61.946	148.82	370.01	1500.8	294.97	311.35	1241.7	282.15
602	2.5042	574.85	1202.3	292.65	438.22	1455.5	441.9	438.42	1448.9	126.9	504.67	1749.9	287.61	537.63	1036.5	399.7	525.24	1033	153.22	314.76	1060.7	331.94	316.51	1061.6	242.33	455.07	952.3	475.36	444.59	947.17	91.368	446.81	1115.4	446.56	416.28	1126.7	122.81	296.49	1026.3	285.24	423.6	710.29	466.12	476.68	599.18	426.68	402.76	619.87	446.41	489.73	687.06	448.71	441.2	525.98	420.46	420.43	510.98	302.91	361.47	353.9	439.75	430.55	294.93	426.18	359.29	277.74	430.66	426.03	368.35	436.99	392.07	93.886	411.46	422.57	105.46	328.4	332.17	76.217	361.95	342.54	44.517	332.76	333.77	46.455	397.18	492.57	39.933	453.9	542.24	46.233	348.21	588.78	61.044	395.57	362.93	701.78	121.84	432.13	596.28	112.59	361.3	612.49	131.29	429.39	684.69	96.694	411.34	515.99	118.9	423.91	515.59	254.27	364	382.59	102.58	430.75	294.95	113.11	367.43	305.51	105.91	426.69	372.84	110.34	403.68	106	126.1	417.47	96.619	217.61	334.64	69.554	172.81	345.81	45.701	206.31	337.48	41.862	144.81	512.12	43.831	95.739	545.66	44.639	205.23	598.91	61.949	148.82	369.98	1500.8	294.98	311.33	1241.7	282.16
603	2.5083	574.82	1202.3	292.66	438.2	1455.5	441.91	438.4	1448.9	126.9	504.63	1749.9	287.62	537.61	1036.5	399.7	525.21	1033	153.23	314.73	1060.7	331.96	316.48	1061.6	242.35	455.06	952.3	475.38	444.56	947.17	91.376	446.8	1115.4	446.56	416.25	1126.7	122.83	296.46	1026.3	285.26	423.6	710.3	466.13	476.69	599.18	426.69	402.76	619.87	446.43	489.73	687.06	448.72	441.2	525.97	420.47	420.42	510.98	302.92	361.48	353.9	439.76	430.55	294.93	426.18	359.29	277.73	430.67	426.03	368.35	437	392.07	93.885	411.47	422.57	105.46	328.4	332.17	76.215	361.95	342.54	44.518	332.76	333.77	46.453	397.18	492.57	39.932	453.9	542.24	46.234	348.21	588.77	61.046	395.57	362.9	701.78	121.85	432.1	596.28	112.6	361.23	612.45	131.46	429.36	684.69	96.702	411.31	515.99	118.91	423.9	515.59	254.28	363.98	382.59	102.58	430.73	294.95	113.11	367.41	305.51	105.91	426.66	372.85	110.34	403.68	106	126.1	417.47	96.62	217.61	334.63	69.551	172.81	345.81	45.7	206.31	337.48	41.859	144.81	512.12	43.831	95.739	545.66	44.643	205.23	598.91	61.952	148.82	369.96	1500.8	294.99	311.3	1241.7	282.16
604	2.5125	574.79	1202.3	292.67	438.18	1455.5	441.92	438.38	1448.9	126.91	504.59	1750	287.64	537.59	1036.5	399.71	525.18	1033	153.24	314.7	1060.7	331.97	316.45	1061.6	242.37	455.05	952.3	475.39	444.54	947.17	91.384	446.78	1115.4	446.56	416.22	1126.7	122.84	296.44	1026.3	285.28	423.6	710.3	466.15	476.69	599.18	426.7	402.76	619.87	446.44	489.73	687.06	448.72	441.2	525.97	420.48	420.41	510.99	302.93	361.48	353.89	439.77	430.55	294.93	426.19	359.29	277.73	430.68	426.03	368.35	437.01	392.07	93.884	411.47	422.57	105.46	328.4	332.17	76.212	361.95	342.54	44.518	332.77	333.77	46.451	397.18	492.57	39.931	453.9	542.24	46.234	348.21	588.77	61.048	395.57	362.87	701.78	121.86	432.08	596.29	112.6	361.17	612.41	131.6	429.33	684.7	96.709	411.27	515.99	118.92	423.88	515.6	254.28	363.95	382.59	102.59	430.71	294.96	113.11	367.39	305.51	105.91	426.64	372.86	110.35	403.68	106	126.1	417.47	96.621	217.61	334.63	69.549	172.81	345.81	45.699	206.31	337.48	41.857	144.81	512.12	43.831	95.738	545.66	44.647	205.23	598.91	61.955	148.82	369.93	1500.8	294.99	311.28	1241.7	282.17
